<svg width="43" height="33" viewBox="0 0 43 33" fill="none" xmlns="http://www.w3.org/2000/svg">
<path fill-rule="evenodd" clip-rule="evenodd" d="M0.44082 4.46869C0.705468 3.29067 1.35604 2.23886 2.28599 1.48551C3.21594 0.732165 4.37014 0.32194 5.55957 0.322021H37.0596C38.249 0.32194 39.4032 0.732165 40.3331 1.48551C41.2631 2.23886 41.9137 3.29067 42.1783 4.46869L21.3096 17.426L0.44082 4.46869ZM0.30957 7.51402V26.458L15.5424 16.97L0.30957 7.51402ZM18.0572 18.5354L0.810945 29.274C1.23705 30.1868 1.90958 30.9578 2.75025 31.4974C3.59092 32.037 4.56515 32.323 5.55957 32.322H37.0596C38.0538 32.3222 39.0277 32.0357 39.8679 31.4956C40.7081 30.9555 41.38 30.1842 41.8056 29.2714L24.5593 18.5327L21.3096 20.5514L18.0572 18.5327V18.5354ZM27.0767 16.9727L42.3096 26.458V7.51402L27.0767 16.97V16.9727Z" fill="#25282B"/>
</svg>
